<svg width="287" height="96" viewBox="0 0 287 96" fill="none" xmlns="http://www.w3.org/2000/svg">
<path d="M263.431 0.000311999H23.6535C22.7795 0.000311999 21.916 0.000311999 21.0443 0.00511198C20.3146 0.00991197 19.5907 0.0238559 18.854 0.0355919C17.2535 0.0545561 15.6568 0.196334 14.0777 0.459695C12.5009 0.728788 10.9734 1.23611 9.54703 1.96449C8.12238 2.69904 6.82063 3.6535 5.68902 4.79326C4.55146 5.92982 3.60322 7.24353 2.88076 8.68387C2.1563 10.1213 1.65396 11.6617 1.39109 13.2518C1.12571 14.8399 0.982911 16.4463 0.963966 18.0566C0.941847 18.7924 0.939512 19.5307 0.927856 20.2667V75.7407C0.939512 76.4859 0.941847 77.2078 0.963966 77.9533C0.982917 79.5635 1.12572 81.1698 1.39109 82.7578C1.65323 84.3488 2.1556 85.8901 2.88076 87.3281C3.60289 88.7638 4.55127 90.0722 5.68902 91.2024C6.81634 92.3472 8.11893 93.3024 9.54703 94.0313C10.9734 94.7616 12.5007 95.272 14.0777 95.5452C15.6571 95.8065 17.2536 95.9483 18.854 95.9695C19.5907 95.9858 20.3146 95.9952 21.0443 95.9952C21.916 96 22.7796 96 23.6535 96H263.431C264.288 96 265.159 96 266.015 95.9952C266.741 95.9952 267.486 95.9858 268.212 95.9695C269.81 95.9494 271.403 95.8076 272.979 95.5452C274.562 95.27 276.094 94.7598 277.528 94.0313C278.954 93.3019 280.256 92.3468 281.382 91.2024C282.517 90.0677 283.467 88.7603 284.198 87.3281C284.918 85.8891 285.416 84.3479 285.674 82.7578C285.94 81.1696 286.088 79.5636 286.116 77.9533C286.126 77.2078 286.126 76.4859 286.126 75.7407C286.144 74.8688 286.144 74.0017 286.144 73.1156V22.8869C286.144 22.008 286.144 21.1362 286.126 20.2667C286.126 19.5307 286.126 18.7924 286.116 18.0565C286.088 16.4461 285.94 14.84 285.674 13.2517C285.415 11.6626 284.917 10.1223 284.198 8.68377C282.727 5.79676 280.394 3.44676 277.528 1.96427C276.094 1.23767 274.561 0.730487 272.979 0.459478C271.404 0.194958 269.81 0.0531305 268.212 0.0352559C267.486 0.0235439 266.741 0.00947997 266.015 0.00479998C265.159 0 264.288 0 263.431 0V0.000311999Z" fill="#A6A6A6"/>
<path d="M21.8432 92.9953C21.1223 92.9953 20.4188 92.9861 19.7036 92.9701C18.2219 92.9509 16.7437 92.8227 15.2811 92.5864C13.9173 92.3528 12.5961 91.9183 11.3612 91.2973C10.1375 90.6814 9.02149 89.8737 8.05579 88.9054C7.0761 87.9484 6.26047 86.8385 5.64121 85.6197C5.01513 84.3929 4.58184 83.0779 4.35644 81.7206C4.11303 80.2621 3.98134 78.7874 3.9625 77.3091C3.94749 76.8129 3.92786 75.1607 3.92786 75.1607V20.8093C3.92786 20.8093 3.94877 19.1825 3.96261 18.7046C3.98066 17.2286 4.11159 15.7562 4.35427 14.3C4.58008 12.9389 5.0137 11.6201 5.64012 10.3893C6.2571 9.17131 7.06821 8.06058 8.04199 7.10021C9.01468 6.13071 10.1343 5.31895 11.36 4.69452C12.5921 4.07546 13.9108 3.64404 15.2718 3.41473C16.7393 3.17608 18.2226 3.04705 19.7094 3.02873L21.8443 3H265L267.16 3.02988C268.634 3.04729 270.103 3.17517 271.557 3.41243C272.932 3.64461 274.265 4.07904 275.511 4.70142C277.966 5.95981 279.964 7.95071 281.225 10.3951C281.841 11.6174 282.268 12.9254 282.491 14.2747C282.737 15.7428 282.874 17.2269 282.902 18.7149C282.909 19.3813 282.909 20.097 282.909 20.8093C282.928 21.6916 282.928 22.5314 282.928 23.3781V72.6194C282.928 73.4742 282.928 74.3083 282.909 75.1492C282.909 75.9143 282.909 76.6152 282.9 77.3366C282.872 78.7981 282.737 80.2556 282.496 81.6975C282.275 83.0647 281.844 84.3899 281.218 85.6267C280.594 86.8324 279.783 87.9327 278.815 88.887C277.848 89.8606 276.73 90.6729 275.504 91.2928C274.261 91.9186 272.931 92.3547 271.557 92.5864C270.095 92.8239 268.616 92.9522 267.135 92.9701C266.442 92.9861 265.716 92.9953 265.011 92.9953L262.447 93L21.8432 92.9953Z" fill="#282828"/>
<path d="M80.513 49.717C80.5403 47.6472 81.1034 45.6178 82.15 43.8176C83.1965 42.0174 84.6925 40.5048 86.4987 39.4207C85.3512 37.8209 83.8375 36.5043 82.0778 35.5754C80.318 34.6466 78.3606 34.1312 76.3611 34.0701C72.0958 33.633 67.9609 36.5619 65.7874 36.5619C63.5718 36.5619 60.2253 34.1135 56.6218 34.1859C54.2909 34.2594 52.0193 34.9212 50.0282 36.1067C48.0372 37.2922 46.3946 38.961 45.2606 40.9505C40.3482 49.2539 44.0124 61.4571 48.718 68.1689C51.0723 71.4555 53.8239 75.1267 57.4242 74.9966C60.9473 74.8539 62.2631 72.8032 66.5159 72.8032C70.7291 72.8032 71.9636 74.9966 75.637 74.9138C79.4175 74.8539 81.7994 71.6126 84.0711 68.2949C85.7627 65.953 87.0643 63.3648 87.9279 60.6261C85.7315 59.7191 83.8572 58.2011 82.5386 56.2611C81.22 54.3212 80.5156 52.0452 80.513 49.717Z" fill="white"/>
<path d="M73.5749 29.656C75.6361 27.2402 76.6516 24.135 76.4057 21C73.2566 21.3229 70.3476 22.7923 68.2585 25.1155C67.2371 26.2504 66.4547 27.5707 65.9563 29.001C65.4578 30.4313 65.253 31.9434 65.3535 33.4511C66.9286 33.4669 68.4869 33.1336 69.911 32.4762C71.3351 31.8188 72.5878 30.8546 73.5749 29.656Z" fill="white"/>
<path d="M103.967 21.5563C104.698 21.5036 105.431 21.6146 106.113 21.8816C106.795 22.1485 107.411 22.5646 107.914 23.0999C108.417 23.6352 108.797 24.2763 109.024 24.977C109.252 25.6777 109.322 26.4205 109.23 27.1518C109.23 30.7495 107.299 32.8175 103.967 32.8175H99.9279V21.5563H103.967ZM101.665 31.2249H103.773C104.295 31.2563 104.817 31.1702 105.302 30.9727C105.787 30.7753 106.221 30.4715 106.575 30.0836C106.928 29.6956 107.191 29.2332 107.344 28.73C107.498 28.2268 107.538 27.6955 107.462 27.1748C107.532 26.6561 107.488 26.1281 107.332 25.6286C107.177 25.1291 106.913 24.6705 106.561 24.2856C106.208 23.9007 105.775 23.5991 105.294 23.4024C104.812 23.2057 104.293 23.1187 103.773 23.1477H101.665V31.2249Z" fill="white"/>
<path d="M111.192 28.5631C111.138 28.0046 111.202 27.4411 111.378 26.9088C111.554 26.3764 111.838 25.887 112.213 25.4718C112.588 25.0566 113.044 24.7249 113.554 24.4979C114.064 24.2709 114.615 24.1537 115.172 24.1537C115.729 24.1537 116.28 24.2709 116.789 24.4979C117.299 24.7249 117.756 25.0566 118.131 25.4718C118.505 25.887 118.79 26.3764 118.966 26.9088C119.141 27.4411 119.205 28.0046 119.152 28.5631C119.206 29.1222 119.143 29.6864 118.968 30.2196C118.792 30.7528 118.508 31.2432 118.133 31.6592C117.758 32.0752 117.301 32.4076 116.791 32.6351C116.281 32.8625 115.73 32.9801 115.172 32.9801C114.614 32.9801 114.062 32.8625 113.552 32.6351C113.042 32.4076 112.585 32.0752 112.21 31.6592C111.835 31.2432 111.551 30.7528 111.376 30.2196C111.2 29.6864 111.137 29.1222 111.192 28.5631ZM117.439 28.5631C117.439 26.721 116.617 25.6437 115.174 25.6437C113.727 25.6437 112.912 26.721 112.912 28.5631C112.912 30.42 113.727 31.489 115.174 31.489C116.617 31.4889 117.439 30.4126 117.439 28.5631H117.439Z" fill="white"/>
<path d="M129.734 32.8158H128.006L126.261 26.5568H126.13L124.393 32.8158H122.681L120.355 24.3175H122.044L123.556 30.8022H123.681L125.416 24.3175H127.014L128.749 30.8022H128.881L130.385 24.3175H132.051L129.734 32.8158Z" fill="white"/>
<path d="M134.007 24.3175H135.61V25.6676H135.735C135.946 25.1827 136.302 24.7762 136.754 24.5048C137.205 24.2334 137.729 24.1106 138.254 24.1535C138.664 24.1224 139.077 24.1847 139.46 24.3359C139.844 24.4871 140.188 24.7232 140.469 25.0267C140.749 25.3303 140.959 25.6935 141.081 26.0895C141.203 26.4855 141.235 26.9041 141.175 27.3143V32.8158H139.509V27.7355C139.509 26.3698 138.92 25.6906 137.688 25.6906C137.409 25.6775 137.131 25.7253 136.872 25.8307C136.613 25.936 136.38 26.0965 136.189 26.3011C135.997 26.5056 135.852 26.7494 135.763 27.0158C135.674 27.2821 135.643 27.5647 135.673 27.8442V32.8159H134.007L134.007 24.3175Z" fill="white"/>
<path d="M143.83 21H145.495V32.8158H143.83V21Z" fill="white"/>
<path d="M147.81 28.563C147.757 28.0045 147.821 27.441 147.996 26.9086C148.172 26.3763 148.457 25.8868 148.832 25.4716C149.206 25.0564 149.663 24.7247 150.173 24.4977C150.682 24.2707 151.233 24.1534 151.791 24.1534C152.348 24.1534 152.899 24.2707 153.408 24.4977C153.918 24.7247 154.375 25.0564 154.75 25.4716C155.124 25.8868 155.409 26.3763 155.585 26.9086C155.761 27.441 155.824 28.0045 155.771 28.563C155.825 29.1221 155.763 29.6864 155.587 30.2196C155.412 30.7528 155.127 31.2431 154.752 31.6591C154.377 32.0751 153.92 32.4075 153.41 32.635C152.9 32.8624 152.349 32.9799 151.791 32.9799C151.233 32.9799 150.681 32.8624 150.171 32.635C149.661 32.4075 149.204 32.0751 148.829 31.6591C148.454 31.2431 148.17 30.7528 147.994 30.2196C147.819 29.6864 147.756 29.1221 147.81 28.563ZM154.057 28.563C154.057 26.7209 153.235 25.6436 151.793 25.6436C150.345 25.6436 149.531 26.7209 149.531 28.563C149.531 30.4199 150.345 31.4889 151.793 31.4889C153.235 31.4889 154.057 30.4125 154.057 28.563H154.057Z" fill="white"/>
<path d="M157.525 30.4125C157.525 28.8827 158.656 28.0008 160.664 27.8755L162.95 27.7428V27.0093C162.95 26.1117 162.361 25.6048 161.222 25.6048C160.292 25.6048 159.648 25.9486 159.463 26.5494H157.851C158.021 25.0897 159.384 24.1534 161.299 24.1534C163.415 24.1534 164.608 25.2141 164.608 27.0093V32.8158H163.005V31.6215H162.873C162.606 32.0499 162.23 32.3991 161.785 32.6336C161.339 32.868 160.84 32.9792 160.338 32.9558C159.984 32.9929 159.626 32.9549 159.287 32.8441C158.948 32.7333 158.636 32.5523 158.371 32.3126C158.106 32.073 157.894 31.7801 157.748 31.4528C157.602 31.1255 157.526 30.7711 157.525 30.4125ZM162.95 29.6863V28.9758L160.889 29.1085C159.727 29.1868 159.2 29.5849 159.2 30.3341C159.2 31.099 159.859 31.5441 160.765 31.5441C161.03 31.5711 161.298 31.5441 161.553 31.4647C161.808 31.3853 162.045 31.255 162.248 31.0817C162.452 30.9083 162.62 30.6955 162.74 30.4558C162.861 30.216 162.932 29.9544 162.95 29.6863Z" fill="white"/>
<path d="M166.798 28.563C166.798 25.8777 168.169 24.1765 170.301 24.1765C170.828 24.1521 171.352 24.2793 171.81 24.5433C172.269 24.8073 172.643 25.1972 172.889 25.6675H173.014V21H174.679V32.8158H173.083V31.4732H172.951C172.686 31.9403 172.299 32.3253 171.831 32.5867C171.364 32.848 170.835 32.9757 170.301 32.9559C168.154 32.956 166.798 31.2548 166.798 28.563ZM168.518 28.563C168.518 30.3655 169.362 31.4502 170.773 31.4502C172.177 31.4502 173.045 30.3499 173.045 28.5704C173.045 26.7992 172.168 25.6832 170.773 25.6832C169.371 25.6832 168.518 26.7752 168.518 28.563H168.518Z" fill="white"/>
<path d="M181.571 28.5631C181.518 28.0046 181.582 27.4411 181.758 26.9088C181.934 26.3764 182.218 25.887 182.593 25.4718C182.968 25.0566 183.424 24.7249 183.934 24.4979C184.443 24.2709 184.994 24.1537 185.552 24.1537C186.109 24.1537 186.66 24.2709 187.169 24.4979C187.679 24.7249 188.136 25.0566 188.51 25.4718C188.885 25.887 189.17 26.3764 189.345 26.9088C189.521 27.4411 189.585 28.0046 189.532 28.5631C189.586 29.1222 189.523 29.6864 189.348 30.2196C189.172 30.7528 188.888 31.2432 188.513 31.6592C188.138 32.0752 187.681 32.4076 187.171 32.6351C186.661 32.8625 186.109 32.9801 185.552 32.9801C184.994 32.9801 184.442 32.8625 183.932 32.6351C183.422 32.4076 182.965 32.0752 182.59 31.6592C182.215 31.2432 181.931 30.7528 181.755 30.2196C181.58 29.6864 181.517 29.1222 181.571 28.5631ZM187.818 28.5631C187.818 26.721 186.997 25.6437 185.554 25.6437C184.107 25.6437 183.292 26.721 183.292 28.5631C183.292 30.42 184.107 31.489 185.554 31.489C186.997 31.4889 187.818 30.4126 187.818 28.5631Z" fill="white"/>
<path d="M191.767 24.3175H193.37V25.6676H193.494C193.706 25.1827 194.062 24.7762 194.513 24.5048C194.965 24.2334 195.489 24.1106 196.013 24.1535C196.424 24.1224 196.836 24.1847 197.22 24.3359C197.603 24.4871 197.948 24.7232 198.228 25.0267C198.509 25.3303 198.718 25.6935 198.84 26.0895C198.962 26.4855 198.995 26.9041 198.934 27.3143V32.8158H197.269V27.7355C197.269 26.3698 196.679 25.6906 195.447 25.6906C195.169 25.6775 194.89 25.7253 194.632 25.8307C194.373 25.936 194.14 26.0965 193.948 26.3011C193.757 26.5056 193.612 26.7494 193.523 27.0158C193.434 27.2821 193.403 27.5647 193.432 27.8442V32.8159H191.767V24.3175Z" fill="white"/>
<path d="M208.346 22.2017V24.3563H210.174V25.769H208.346V30.1389C208.346 31.0291 208.71 31.4189 209.539 31.4189C209.751 31.4182 209.963 31.4052 210.174 31.3801V32.7772C209.875 32.8311 209.572 32.8597 209.268 32.8629C207.416 32.8629 206.678 32.2067 206.678 30.5683V25.7689H205.338V24.3562H206.678V22.2017H208.346Z" fill="white"/>
<path d="M212.449 21H214.1V25.6832H214.232C214.453 25.1938 214.819 24.785 215.28 24.5126C215.74 24.2402 216.273 24.1174 216.805 24.1609C217.214 24.1385 217.622 24.2071 218.001 24.362C218.38 24.5168 218.721 24.754 218.999 25.0566C219.276 25.3592 219.484 25.7198 219.607 26.1126C219.731 26.5054 219.766 26.9208 219.712 27.3291V32.8159H218.045V27.7428C218.045 26.3854 217.417 25.6979 216.24 25.6979C215.954 25.6743 215.666 25.7139 215.396 25.8141C215.127 25.9142 214.882 26.0724 214.68 26.2776C214.477 26.4828 214.322 26.7301 214.224 27.0021C214.127 27.2742 214.089 27.5644 214.115 27.8525V32.8158H212.449L212.449 21Z" fill="white"/>
<path d="M229.425 30.5212C229.198 31.2979 228.708 31.9698 228.039 32.4192C227.371 32.8687 226.567 33.0671 225.768 32.9798C225.212 32.9946 224.659 32.8874 224.148 32.6656C223.637 32.4438 223.181 32.1127 222.81 31.6953C222.439 31.278 222.163 30.7844 222 30.2487C221.838 29.713 221.793 29.1482 221.869 28.5934C221.795 28.0368 221.84 27.4708 222.002 26.9335C222.165 26.3963 222.439 25.9003 222.808 25.4793C223.177 25.0583 223.632 24.7221 224.141 24.4933C224.65 24.2646 225.203 24.1487 225.76 24.1534C228.109 24.1534 229.525 25.769 229.525 28.4376V29.0228H223.566V29.1168C223.54 29.4287 223.578 29.7426 223.68 30.0384C223.781 30.3343 223.943 30.6055 224.155 30.8347C224.366 31.0639 224.623 31.2461 224.909 31.3695C225.194 31.4929 225.503 31.5549 225.813 31.5514C226.212 31.5996 226.615 31.5273 226.973 31.3439C227.33 31.1604 227.626 30.874 227.821 30.5212L229.425 30.5212ZM223.566 27.7824H227.829C227.849 27.4972 227.811 27.2107 227.715 26.9414C227.62 26.672 227.47 26.4258 227.274 26.2184C227.078 26.0111 226.842 25.8473 226.579 25.7375C226.317 25.6277 226.035 25.5743 225.751 25.5809C225.463 25.5773 225.177 25.6317 224.91 25.7411C224.643 25.8504 224.401 26.0125 224.197 26.2177C223.994 26.4228 223.833 26.667 223.724 26.9357C223.616 27.2045 223.562 27.4924 223.566 27.7824H223.566Z" fill="white"/>
<path d="M114.948 62.8023H105.92L103.752 69.2487H99.9279L108.479 45.3988H112.452L121.004 69.2487H117.115L114.948 62.8023ZM106.855 59.8276H114.012L110.484 49.3656H110.385L106.855 59.8276Z" fill="white"/>
<path d="M139.473 60.5543C139.473 65.9578 136.601 69.4295 132.266 69.4295C131.168 69.4873 130.076 69.2327 129.115 68.6946C128.154 68.1566 127.363 67.357 126.833 66.3873H126.751V75H123.206V51.8591H126.637V54.7512H126.702C127.257 53.7862 128.062 52.9907 129.03 52.4494C129.998 51.9081 131.094 51.6412 132.201 51.6771C136.584 51.6771 139.473 55.1657 139.473 60.5543ZM135.829 60.5543C135.829 57.0338 134.023 54.7193 131.266 54.7193C128.558 54.7193 126.736 57.0826 126.736 60.5543C126.736 64.0579 128.558 66.4042 131.266 66.4042C134.023 66.4042 135.829 64.1066 135.829 60.5543Z" fill="white"/>
<path d="M158.48 60.5543C158.48 65.9578 155.607 69.4295 151.273 69.4295C150.175 69.4874 149.083 69.2327 148.122 68.6947C147.161 68.1566 146.37 67.357 145.839 66.3873H145.757V75H142.213V51.8591H145.644V54.7512H145.709C146.264 53.7862 147.068 52.9907 148.037 52.4494C149.005 51.9081 150.101 51.6412 151.208 51.6772C155.591 51.6772 158.48 55.1657 158.48 60.5543ZM154.836 60.5543C154.836 57.0338 153.029 54.7194 150.273 54.7194C147.564 54.7194 145.743 57.0826 145.743 60.5543C145.743 64.0579 147.564 66.4042 150.273 66.4042C153.029 66.4042 154.836 64.1066 154.836 60.5543H154.836Z" fill="white"/>
<path d="M171.041 62.6024C171.304 64.9675 173.585 66.5204 176.704 66.5204C179.691 66.5204 181.841 64.9675 181.841 62.8349C181.841 60.9837 180.544 59.8753 177.475 59.1156L174.405 58.371C170.056 57.3132 168.037 55.2651 168.037 51.9415C168.037 47.8265 171.598 45 176.655 45C181.66 45 185.091 47.8265 185.207 51.9415H181.628C181.414 49.5614 179.46 48.1247 176.605 48.1247C173.749 48.1247 171.795 49.5783 171.795 51.694C171.795 53.3801 173.043 54.3723 176.096 55.1318L178.706 55.777C183.566 56.9343 185.585 58.8999 185.585 62.3884C185.585 66.8504 182.055 69.6451 176.441 69.6451C171.188 69.6451 167.642 66.9161 167.412 62.6022L171.041 62.6024Z" fill="white"/>
<path d="M193.235 47.744V51.859H196.519V54.6855H193.235V64.2716C193.235 65.7608 193.892 66.4548 195.336 66.4548C195.726 66.448 196.115 66.4204 196.502 66.3722V69.1818C195.853 69.3039 195.193 69.3592 194.533 69.3469C191.037 69.3469 189.673 68.0246 189.673 64.6523V54.6855H187.163V51.859H189.673V47.744H193.235Z" fill="white"/>
<path d="M198.421 60.5542C198.421 55.0832 201.621 51.6452 206.611 51.6452C211.618 51.6452 214.803 55.0831 214.803 60.5542C214.803 66.0403 211.635 69.4632 206.611 69.4632C201.589 69.4632 198.421 66.0403 198.421 60.5542ZM211.191 60.5542C211.191 56.8012 209.483 54.5861 206.611 54.5861C203.739 54.5861 202.032 56.8181 202.032 60.5542C202.032 64.3222 203.739 66.5204 206.611 66.5204C209.483 66.5204 211.191 64.3222 211.191 60.5542H211.191Z" fill="white"/>
<path d="M217.725 51.8591H221.106V54.8187H221.188C221.417 53.8944 221.954 53.0775 222.711 52.5054C223.467 51.9332 224.396 51.6408 225.342 51.6771C225.75 51.6757 226.157 51.7204 226.556 51.8103V55.1488C226.04 54.9902 225.502 54.9173 224.963 54.9331C224.448 54.9121 223.935 55.0035 223.459 55.2011C222.982 55.3987 222.554 55.6978 222.203 56.0779C221.852 56.458 221.587 56.91 221.426 57.403C221.265 57.8959 221.211 58.4181 221.27 58.9337V69.2476H217.725L217.725 51.8591Z" fill="white"/>
<path d="M242.899 64.1403C242.422 67.2969 239.369 69.4632 235.463 69.4632C230.439 69.4632 227.321 66.074 227.321 60.6367C227.321 55.1826 230.456 51.6452 235.314 51.6452C240.092 51.6452 243.096 54.95 243.096 60.2222V61.4451H230.9V61.6608C230.843 62.3007 230.923 62.9454 231.133 63.552C231.343 64.1586 231.679 64.7133 232.118 65.1791C232.558 65.6449 233.091 66.0113 233.681 66.2539C234.272 66.4965 234.907 66.6097 235.545 66.5861C236.383 66.6651 237.223 66.4697 237.942 66.0291C238.66 65.5884 239.218 64.926 239.533 64.1403L242.899 64.1403ZM230.916 58.9506H239.55C239.582 58.3752 239.495 57.7994 239.295 57.2593C239.096 56.7192 238.787 56.2265 238.39 55.8121C237.992 55.3977 237.513 55.0706 236.984 54.8512C236.455 54.6318 235.886 54.525 235.314 54.5374C234.737 54.5339 234.165 54.6456 233.63 54.8659C233.096 55.0863 232.611 55.411 232.202 55.8213C231.793 56.2316 231.469 56.7194 231.248 57.2565C231.028 57.7936 230.915 58.3694 230.916 58.9506V58.9506Z" fill="white"/>
</svg>