<svg width="123" height="32" fill="none" xmlns="http://www.w3.org/2000/svg"><g clip-path="url(#a)"><path d="M47.549 2.486c-.696 1.62-1.924 5.063-1.924 5.063L44.12 3.19S43.337.886 40.83.886h-3.194v10.472h3.19V4.09s.383.072 1.12 2.149c.737 2.077 1.832 5.137 1.832 5.137h2.151s1.547-.1 2.444-2.538l1.16-3.143s.578-1.715 1.11-1.917v7.575h3.164V.883h-3.165S48.24.866 47.55 2.486zM64.207 8.26s-2.854-4.29-3.282-5.01c-.73-.988-1.634-2.368-3.177-2.368h-3.203v10.471h3.2V3.975s2.852 4.293 3.282 5.012c.732.987 1.555 2.367 3.176 2.367h3.173V.883h-3.17V8.26zm14.832.402-.024-.024h-4.92c-.66 0-1.293-.263-1.76-.73a2.5 2.5 0 0 1 0-3.53 2.486 2.486 0 0 1 1.76-.731h4.726c.397-.44.822-.786 1.118-1.08L81.654.881h-8.228c-2.931 0-5.308 2.357-5.308 5.26 0 2.903 2.377 5.262 5.308 5.262h8.331l-2.718-2.741z" fill="#58595B"/><path d="M19.63 2.37c-.605-.446-1.068-1.025-1.618-1.5a3.201 3.201 0 0 0-4.453.06l-.055.054c-.154.13-.306.27-.459.412L8.49 5.922l-.022.115c-.351 1.718.772 2.974.772 2.974l2.533 2.605 4.057 4.098 1.382-1.389 2.962-2.944 2.242-2.191c.05-.044.1-.084.148-.126a3.547 3.547 0 0 1 2.886-.738 2.585 2.585 0 0 1 .216.053l.008.004L19.63 2.37z" fill="#FDD600"/><path d="m30.228 12.906-4.56-4.529a3.4 3.4 0 0 0-1.147-.101 3.548 3.548 0 0 0-1.954.786c-.054.043-.097.082-.148.127l-2.242 2.191-2.962 2.944-1.382 1.389 3.775 3.714 2.86 2.883v.003l.003.003c.113.12.47.545.712 1.357.17.584.198 1.2.082 1.796a.778.778 0 0 0-.014.057h.005l.57-.581L27.6 21.12l3.044-3.051a3.174 3.174 0 0 0 .9-1.825c.026-.168.041-.338.045-.509.025-1.235-.589-2.02-1.362-2.83z" fill="#213E7A"/><path d="M23.186 23.673c-.243-.81-.6-1.234-.713-1.357-.003 0-.004-.006-.006-.007l-2.86-2.883-3.775-3.715-3.704 3.786-2.88 2.88a3.476 3.476 0 0 1-2.787.857 8.695 8.695 0 0 1-.31-.051L12 29.09c.724.724 1.739 2.173 3.512 2.316a3.176 3.176 0 0 0 2.728-.894l3.543-3.558 1.448-1.405.023-.023.014-.056a3.84 3.84 0 0 0-.081-1.798z" fill="#EA3E24"/><path d="M22.47 22.313s0 .004.006.007a.008.008 0 0 1-.004-.002.008.008 0 0 1-.002-.005z" fill="#EA3E24"/><path d="M11.773 11.617 9.24 9.012S8.116 7.756 8.468 6.04l.022-.115-6.001 5.953c-.751.754-2.29 1.828-2.322 3.752-.018 1.236.588 2.033 1.354 2.852l4.53 4.598.1.098v.004c.106.02.209.037.308.052a3.47 3.47 0 0 0 2.787-.857l2.877-2.872 3.705-3.786-4.055-4.1z" fill="#3F9143"/><path d="M7.39 15.716c0-4.633 3.776-8.388 8.44-8.388 4.661 0 8.437 3.755 8.437 8.388 0 4.634-3.775 8.388-8.437 8.388-4.662 0-8.44-3.754-8.44-8.388zm.59 0a7.752 7.752 0 0 0 2.302 5.518 7.857 7.857 0 0 0 5.55 2.286 7.85 7.85 0 0 0 5.55-2.286 7.745 7.745 0 0 0 2.292-5.518 7.768 7.768 0 0 0-2.297-5.517 7.842 7.842 0 0 0-5.55-2.285 7.848 7.848 0 0 0-5.55 2.285 7.741 7.741 0 0 0-2.299 5.517h.002z" fill="#fff"/><path d="M24.051 15.716a8.26 8.26 0 0 1-1.385 4.58 8.228 8.228 0 0 1-3.69 3.038 8.202 8.202 0 0 1-8.962-1.788 8.266 8.266 0 0 1-1.782-8.986 8.24 8.24 0 0 1 3.03-3.7 8.207 8.207 0 0 1 10.382 1.026 8.244 8.244 0 0 1 2.407 5.83z" fill="url(#b)"/><path d="M17.088 15.595a1.253 1.253 0 0 1-.773 1.154 1.245 1.245 0 0 1-1.7-.915 1.254 1.254 0 0 1 .533-1.284 1.245 1.245 0 0 1 1.846.566c.062.152.094.315.094.479z" fill="#fff"/><path d="M24.145 15.734a8.263 8.263 0 0 1-1.386 4.583 8.23 8.23 0 0 1-3.692 3.037 8.205 8.205 0 0 1-8.964-1.788 8.269 8.269 0 0 1-1.783-8.989 8.243 8.243 0 0 1 3.03-3.7A8.21 8.21 0 0 1 21.737 9.9a8.246 8.246 0 0 1 2.408 5.833z" fill="url(#c)"/><path d="M51.375 22.966a8.83 8.83 0 0 1 1.51-5.054 8.795 8.795 0 0 1 4.118-3.285c1.154-.461 2.425-.692 3.814-.692 1.372 0 2.64.23 3.802.692a9.003 9.003 0 0 1 2.999 1.917 8.8 8.8 0 0 1 1.958 2.872 9.346 9.346 0 0 1 0 7.103 8.791 8.791 0 0 1-1.958 2.87 8.991 8.991 0 0 1-3 1.918c-1.162.462-2.43.693-3.801.693-1.39 0-2.66-.231-3.814-.693a8.83 8.83 0 0 1-4.112-3.29 8.868 8.868 0 0 1-1.516-5.05zm4.64 0a4.56 4.56 0 0 0 .385 1.885 4.694 4.694 0 0 0 2.569 2.485c1.185.47 2.504.47 3.689 0a4.834 4.834 0 0 0 1.539-.987 4.652 4.652 0 0 0 1.052-1.5 4.806 4.806 0 0 0 0-3.768 4.671 4.671 0 0 0-1.052-1.5 4.832 4.832 0 0 0-1.54-.987 5.006 5.006 0 0 0-3.688 0 4.707 4.707 0 0 0-2.57 2.492 4.566 4.566 0 0 0-.384 1.88zM49.185 15.91c-1.019-1-2.486-1.5-4.403-1.5h-7.06v17.11h2.174s2.261-.208 2.261-2.029V25.85h2.626c1.916 0 3.383-.5 4.402-1.5 1.018-1 1.528-2.407 1.528-4.221s-.51-3.22-1.528-4.219zm-5.556 6.356h-1.471v-4.269h1.471c1.629 0 2.443.711 2.444 2.134 0 1.422-.814 2.133-2.444 2.133v.002zM84.778 14.411v3.768h3.643V31.52h2.194s2.033-.19 2.242-1.764V18.18H96.5V14.41H84.777zM80.064 24.51c1.222-.286 2.146-.833 2.772-1.643.625-.81.938-1.865.94-3.166a5.864 5.864 0 0 0-.351-2.042 4.7 4.7 0 0 0-2.796-2.825c-.71-.28-1.539-.42-2.489-.42h-6.904V31.52h2.17s2.263-.208 2.263-2.029v-4.55l4.236 6.579h5.523l-5.364-7.01zm-1.539-2.996c-.468.364-1.139.546-2.014.546h-.835v-4.221h.837c.875 0 1.546.181 2.014.544.468.363.702.885.702 1.566-.002.68-.237 1.202-.704 1.565zM122.833 29.494v-1.738h-5.319V14.41h-4.436V31.52h7.494s2.261-.205 2.261-2.026z" fill="#213E7A"/><path d="m99.564 29.962.49-1.428h6.32l.321.937c.009.034.021.063.031.097l.124.365c.536 1.322 1.59 1.535 1.978 1.566h3.277l-6.479-17.067h-4.83L94.314 31.5h3.276c.394-.034 1.433-.244 1.974-1.537zm3.65-10.485 1.986 5.68h-3.973l1.987-5.68z" fill="#213E7B"/></g><defs><radialGradient id="b" cx="0" cy="0" r="1" gradientUnits="userSpaceOnUse" gradientTransform="matrix(8.22195 0 0 8.24429 15.828 15.715)"><stop stop-color="#fff"/><stop offset=".05" stop-color="#fff" stop-opacity=".9"/><stop offset=".15" stop-color="#fff" stop-opacity=".69"/><stop offset=".26" stop-color="#fff" stop-opacity=".51"/><stop offset=".37" stop-color="#fff" stop-opacity=".35"/><stop offset=".48" stop-color="#fff" stop-opacity=".22"/><stop offset=".6" stop-color="#fff" stop-opacity=".12"/><stop offset=".72" stop-color="#fff" stop-opacity=".05"/><stop offset=".85" stop-color="#fff" stop-opacity=".01"/><stop offset="1" stop-color="#fff" stop-opacity="0"/></radialGradient><radialGradient id="c" cx="0" cy="0" r="1" gradientUnits="userSpaceOnUse" gradientTransform="matrix(1899.43 0 0 1904.6 5981.71 7116.81)"><stop stop-color="#fff"/><stop offset=".05" stop-color="#fff" stop-opacity=".9"/><stop offset=".15" stop-color="#fff" stop-opacity=".69"/><stop offset=".26" stop-color="#fff" stop-opacity=".51"/><stop offset=".37" stop-color="#fff" stop-opacity=".35"/><stop offset=".48" stop-color="#fff" stop-opacity=".22"/><stop offset=".6" stop-color="#fff" stop-opacity=".12"/><stop offset=".72" stop-color="#fff" stop-opacity=".05"/><stop offset=".85" stop-color="#fff" stop-opacity=".01"/><stop offset="1" stop-color="#fff" stop-opacity="0"/></radialGradient><clipPath id="a"><path fill="#fff" transform="translate(.167)" d="M0 0h122.667v32H0z"/></clipPath></defs></svg>