<svg width="180" height="36" viewBox="0 0 180 36" fill="none" xmlns="http://www.w3.org/2000/svg">
<path d="M64.2452 28.2864C69.8466 28.2864 74.3874 23.7456 74.3874 18.1442C74.3874 12.5428 69.8466 8.00195 64.2452 8.00195C58.6438 8.00195 54.103 12.5428 54.103 18.1442C54.103 23.7456 58.6438 28.2864 64.2452 28.2864Z" fill="#022260"/>
<path d="M65.3791 28.2246C70.4512 27.6645 74.3973 23.3644 74.3973 18.1432C74.3973 12.5414 69.8558 8 64.2541 8C63.1898 8 62.1648 8.16381 61.2006 8.46788C61.5704 8.42668 61.9461 8.40608 62.3266 8.40608C67.9284 8.40608 72.4698 12.9475 72.4698 18.5493C72.4698 23.0878 69.489 26.9299 65.3791 28.2256" fill="url(#paint0_linear_2252_8488)"/>
<path fill-rule="evenodd" clip-rule="evenodd" d="M11.6381 14.8415L11.2241 14.5963C10.9485 14.4335 10.5826 14.253 10.1285 14.0578C9.67435 13.8459 9.17901 13.6576 8.64345 13.4948C8.1079 13.332 7.58019 13.2496 7.06131 13.2496C6.65522 13.2496 6.32271 13.3153 6.06278 13.4457C5.80284 13.5762 5.67337 13.7969 5.67337 14.1069C5.67337 14.4011 5.80383 14.6375 6.06278 14.817C6.32271 14.9965 6.68759 15.1603 7.15841 15.3065C7.64492 15.4536 8.22168 15.6331 8.88671 15.845C9.95782 16.1716 10.8828 16.5473 11.6616 16.971C12.4404 17.3957 13.0407 17.9421 13.4635 18.612C13.8852 19.2643 14.0961 20.1382 14.0961 21.2319C14.0961 22.3256 13.9098 23.1584 13.536 23.8764C13.1633 24.5787 12.6601 25.1417 12.0265 25.5664C11.3938 25.9911 10.6876 26.3011 9.90878 26.4963C9.12997 26.6758 8.33448 26.766 7.5233 26.766C6.71211 26.766 5.82737 26.6846 4.9181 26.5208C4.0255 26.3413 3.15743 26.1049 2.3129 25.8106C1.46935 25.5007 0.698382 25.1417 0 24.7336L2.04512 20.5473L2.53163 20.8406C2.8563 21.0367 3.28592 21.2574 3.82148 21.5017C4.35704 21.7469 4.94949 21.9666 5.59882 22.1628C6.26385 22.3589 6.92987 22.456 7.5949 22.456C8.11476 22.456 8.4718 22.3903 8.66601 22.2599C8.8769 22.1127 8.98284 21.9254 8.98284 21.6969C8.98284 21.3535 8.80432 21.0926 8.44728 20.9131C8.09024 20.717 7.61942 20.5375 7.03482 20.3746C6.4669 20.1951 5.83325 19.9911 5.13585 19.7626C4.12948 19.4193 3.30162 19.0357 2.65228 18.612C2.00294 18.1716 1.52428 17.6566 1.21628 17.0691C0.908288 16.4649 0.754291 15.739 0.754291 14.8896C0.754291 13.5997 1.05444 12.5227 1.65473 11.6576C2.25503 10.7925 3.04267 10.1392 4.01667 9.69881C5.00638 9.24173 6.06964 9.01318 7.20549 9.01318C8.04904 9.01318 8.86121 9.11912 9.64002 9.33197C10.4355 9.52814 11.1741 9.77238 11.8548 10.0666C12.5532 10.3609 13.1614 10.6375 13.6812 10.8994L11.6361 14.8415H11.6381Z" fill="#022260"/>
<path d="M19.6744 9.16138H14.9269V26.5454H19.6744V9.16138Z" fill="#022260"/>
<path fill-rule="evenodd" clip-rule="evenodd" d="M25.5419 26.6533V18.1079L32.4071 26.6533H36.1815V9.26929H31.434V18.1079L24.4953 9.26929H20.7955V26.6533H25.5419Z" fill="#022260"/>
<path fill-rule="evenodd" clip-rule="evenodd" d="M37.2781 9.26929V26.6533H43.9235C45.6763 26.6533 47.2016 26.2943 48.5002 25.5763C49.8146 24.8583 50.8288 23.846 51.5429 22.5405C52.2737 21.235 52.6386 19.6999 52.6386 17.9373C52.6386 16.3375 52.306 14.8848 51.64 13.5792C50.9907 12.257 50.0177 11.2124 48.719 10.4454C47.437 9.66164 45.8382 9.27027 43.9225 9.27027H37.2771L37.2781 9.26929ZM47.3566 15.5861C47.6655 16.2551 47.8185 17.0388 47.8185 17.9363C47.8185 18.8338 47.6645 19.5851 47.3566 20.2865C47.0476 20.9721 46.6023 21.5106 46.0177 21.9019C45.4497 22.2933 44.7514 22.4895 43.9235 22.4895H42.0245V13.4311H43.9235C44.7347 13.4311 45.4331 13.6185 46.0177 13.9942C46.6023 14.3698 47.0476 14.9005 47.3566 15.5861Z" fill="#022260"/>
<path fill-rule="evenodd" clip-rule="evenodd" d="M80.8249 26.5963V18.1196L87.69 26.5963H91.4635V9.35254H86.716V18.1196L79.7783 9.35254H76.0775V26.5963H80.8249Z" fill="#E2100E"/>
<path fill-rule="evenodd" clip-rule="evenodd" d="M104.88 22.4668V26.5963H92.5611V9.35254H104.66V13.481H97.3085V15.9097H103.589V19.7469H97.3085V22.4668H104.88Z" fill="#E2100E"/>
<path d="M117.103 9.35254H112.792L115.634 17.586L114.454 21.1073L110.744 9.35254H105.663L112.118 26.5963H116.187L118.669 20.4266L121.173 26.5963H125.244L131.698 9.35254H126.592L122.907 21.1073L121.679 17.586L124.569 9.35254H120.258L118.669 14.6708L117.103 9.35254Z" fill="#E2100E"/>
<path fill-rule="evenodd" clip-rule="evenodd" d="M142.235 14.8965L141.821 14.6493C141.545 14.4845 141.18 14.303 140.726 14.1059C140.272 13.8911 139.776 13.7018 139.241 13.537C138.705 13.3722 138.178 13.2898 137.658 13.2898C137.252 13.2898 136.919 13.3555 136.659 13.4879C136.4 13.6194 136.27 13.842 136.27 14.1549C136.27 14.4511 136.4 14.6905 136.659 14.8719C136.919 15.0534 137.284 15.2182 137.755 15.3663C138.242 15.5144 138.818 15.6959 139.483 15.9097C140.554 16.2393 141.479 16.6179 142.259 17.0465C143.038 17.4752 143.638 18.0274 144.06 18.7022C144.482 19.3614 144.692 20.2432 144.692 21.3467C144.692 22.4502 144.506 23.2908 144.132 24.0166C143.76 24.7248 143.256 25.2937 142.623 25.7224C141.99 26.151 141.284 26.4639 140.505 26.662C139.726 26.8435 138.931 26.9337 138.12 26.9337C137.308 26.9337 136.424 26.8513 135.514 26.6866C134.622 26.5051 133.754 26.2667 132.909 25.9695C132.066 25.6566 131.295 25.2937 130.596 24.8817L132.641 20.6552L133.128 20.9514C133.453 21.1495 133.882 21.3712 134.418 21.6194C134.953 21.8665 135.546 22.0892 136.195 22.2864C136.861 22.4845 137.526 22.5836 138.191 22.5836C138.711 22.5836 139.068 22.5178 139.262 22.3854C139.473 22.2373 139.579 22.048 139.579 21.8165C139.579 21.4712 139.401 21.2074 139.044 21.0259C138.687 20.8288 138.216 20.6473 137.631 20.4825C137.063 20.3011 136.431 20.0951 135.733 19.8646C134.727 19.5183 133.899 19.1309 133.25 18.7022C132.6 18.2579 132.122 17.738 131.814 17.1446C131.505 16.5345 131.352 15.8018 131.352 14.9445C131.352 13.6429 131.652 12.5551 132.252 11.6821C132.853 10.8082 133.64 10.15 134.614 9.7047C135.604 9.24369 136.667 9.01318 137.803 9.01318C138.646 9.01318 139.459 9.1201 140.237 9.33491C141.032 9.53207 141.77 9.77925 142.452 10.0764C143.15 10.3727 143.759 10.6532 144.279 10.9171L142.233 14.8965H142.235Z" fill="#E2100E"/>
<path d="M162.125 13.4959H157.194V26.7504H152.483V13.4959H147.528V9.32324H162.125V13.4959Z" fill="#022260"/>
<path d="M168.355 9.32324L171.721 21.2281L175.038 9.32324H180.001L174.069 26.7504H169.372L163.369 9.32324H168.355Z" fill="#022260"/>
<path d="M54.102 18.1441C54.102 23.7459 58.6435 28.2864 64.2442 28.2864C66.1913 28.2864 68.0098 27.7371 69.5547 26.7866C69.2506 26.8837 68.9083 26.9847 68.5159 27.0907C67.1113 27.4712 65.3163 27.382 63.2761 27.0465C62.4316 26.9072 61.642 26.5394 60.9897 25.9852C59.4311 24.6257 58.5866 23.3996 58.5336 22.1726C58.4826 20.3874 63.9735 17.0269 67.0643 16.2C68.8602 15.7204 70.1275 16.5473 70.1275 16.5473C70.1275 16.5473 70.3119 16.1735 70.3649 15.8538C70.4179 15.534 70.4973 14.92 69.5459 14.1735C68.5954 13.4006 66.8259 13.7469 65.9804 13.9342C65.1084 14.1206 64.3433 14.2275 63.7872 14.0411C63.2065 13.8548 63.3909 13.1613 63.3909 13.1613C63.6449 13.2574 63.9127 13.3094 64.1844 13.3172C64.5542 13.3172 65.1614 13.1838 65.5047 13.0779C65.848 12.971 66.4816 12.8915 66.4816 12.8915C66.4816 12.8915 66.4306 12.7581 66.1118 12.4649C65.795 12.1981 65.1084 11.8528 64.105 11.638C63.1015 11.4232 61.2006 11.5576 59.9588 12.0117C58.718 12.4649 57.6636 13.6645 57.6636 13.6645L57.8745 13.1583C58.0059 12.8651 58.2972 12.1186 58.3237 11.3732C58.3374 11.075 58.1726 10.6277 57.9627 10.1814C55.6106 12.0392 54.1001 14.9161 54.1001 18.1461L54.102 18.1441Z" fill="white"/>
<path d="M64.1854 13.3163C63.9137 13.3085 63.6459 13.2565 63.3919 13.1603C63.3919 13.1603 63.2957 13.5252 63.4654 13.7969C63.4586 13.7312 63.4556 13.6655 63.4615 13.5988C63.7263 13.6576 63.999 13.6724 64.2688 13.642C64.6346 13.588 65.2153 13.3673 65.54 13.2113C65.8156 13.0789 66.2992 12.9357 66.4394 12.8955C66.2913 12.9151 65.796 12.9867 65.5066 13.076C65.1633 13.1829 64.5562 13.3153 64.1864 13.3153L64.1854 13.3163Z" fill="#E5E5E5"/>
<path d="M67.0642 16.199C63.9735 17.0259 58.4826 20.3863 58.5336 22.1715C58.5866 23.3986 59.4311 24.6247 60.9897 25.9842C61.0348 26.0234 61.0829 26.0587 61.13 26.096L59.2173 22.3412C60.1373 20.4069 64.4218 17.3927 67.0466 16.4491C68.5463 15.9096 69.7401 16.3608 70.049 16.5001C69.7479 16.3334 68.5993 15.789 67.0642 16.199Z" fill="#E5E5E5"/>
<path d="M58.3256 11.3712C58.2992 12.1167 58.0078 12.8631 57.8764 13.1564L57.6655 13.6625C57.6655 13.6625 57.9274 13.3653 58.3433 13.0102C58.4502 12.6395 58.5591 12.1304 58.5493 11.6282C58.5463 11.2663 58.2658 10.6973 57.9667 10.1794C57.6724 10.4119 57.3919 10.6601 57.1251 10.9229C57.3919 10.6601 57.6724 10.4119 57.9667 10.1804C58.1756 10.6267 58.3413 11.074 58.3276 11.3722L58.3256 11.3712Z" fill="#E5E5E5"/>
<defs>
<linearGradient id="paint0_linear_2252_8488" x1="59.2369" y1="10.4316" x2="72.7739" y2="23.9686" gradientUnits="userSpaceOnUse">
<stop stop-color="#1C63EE"/>
<stop offset="0.64" stop-color="#E2100E"/>
<stop offset="1" stop-color="#E2100E"/>
</linearGradient>
</defs>
</svg>
